<?xml version="1.0" standalone="no"?>
<!DOCTYPE svg PUBLIC "-//W3C//DTD SVG 20010904//EN"
 "http://www.w3.org/TR/2001/REC-SVG-20010904/DTD/svg10.dtd">
<svg version="1.0" xmlns="http://www.w3.org/2000/svg"
 width="512.000000pt" height="512.000000pt" viewBox="0 0 512.000000 512.000000"
 preserveAspectRatio="xMidYMid meet">
<metadata>
Created by potrace 1.11, written by Peter Selinger 2001-2013
</metadata>
<g transform="translate(0.000000,512.000000) scale(0.100000,-0.100000)"
fill="#000000" stroke="none">
<path d="M3406 4185 c-35 -77 -38 -87 -24 -102 8 -10 27 -39 41 -65 15 -26 46
-62 70 -80 23 -19 72 -58 110 -88 66 -53 86 -90 49 -90 -10 0 -22 4 -27 9 -6
5 -40 25 -76 44 -44 24 -70 33 -79 27 -16 -10 -15 -12 23 -28 15 -7 27 -19 27
-30 0 -33 -33 -51 -114 -63 -43 -6 -89 -15 -103 -20 -13 -5 -46 -9 -73 -9 -27
0 -55 -3 -64 -6 -26 -10 -18 -41 14 -54 19 -8 30 -20 30 -33 0 -17 -5 -19 -34
-14 -19 3 -60 17 -93 30 -32 14 -98 41 -146 62 -127 53 -308 88 -412 79 -88
-7 -143 -22 -90 -24 129 -4 186 -14 269 -47 191 -76 209 -86 264 -156 29 -36
52 -73 52 -83 1 -44 45 -75 176 -124 71 -27 130 -53 132 -59 7 -22 -32 -23
-121 -3 -123 28 -300 28 -457 1 -63 -11 -122 -22 -131 -25 -9 -2 -22 2 -28 10
-11 13 -17 10 -43 -20 -17 -19 -28 -38 -24 -41 3 -4 57 -5 119 -4 l112 2 -110
-74 c-102 -68 -119 -76 -239 -108 -110 -29 -135 -39 -173 -73 -24 -21 -46 -37
-48 -35 -2 2 20 33 49 69 29 36 98 122 153 191 107 135 103 126 119 274 9 79
6 79 163 26 106 -35 114 -37 119 -19 3 14 14 18 49 18 35 0 44 3 40 14 -9 22
-139 176 -149 176 -5 0 -8 -19 -6 -42 2 -34 0 -42 -12 -40 -160 36 -229 56
-280 80 -30 15 -35 23 -38 55 -5 59 -9 59 -191 -8 -24 -9 -63 -29 -87 -45 -44
-31 -124 -140 -158 -217 -22 -50 -31 -53 -184 -57 -82 -2 -111 1 -144 16 -22
10 -50 18 -63 18 -12 0 -28 6 -34 13 -6 8 -28 19 -49 25 -37 11 -42 17 -82
109 -42 94 -87 160 -174 251 l-40 42 -138 0 c-111 0 -138 -3 -138 -14 0 -22
24 -36 50 -29 16 4 21 3 16 -5 -14 -23 -54 -13 -76 19 l-22 30 -92 -6 c-65 -4
-105 -2 -141 9 l-50 14 72 1 c39 1 74 5 78 11 5 8 -9 13 -105 38 -22 5 -55 4
-91 -3 -96 -20 -103 -35 -27 -54 29 -7 73 -20 98 -28 46 -15 257 -62 298 -67
13 -2 27 -8 31 -14 3 -6 19 -15 34 -21 17 -7 27 -18 27 -31 0 -25 -22 -35 -48
-21 -18 9 -20 6 -26 -38 -4 -27 -12 -54 -20 -60 -14 -12 -18 -9 -224 132 -45
31 -88 57 -95 57 -22 0 -114 48 -135 70 l-20 22 -31 -23 c-17 -12 -31 -25 -31
-28 0 -2 3 -2 6 2 9 9 69 -24 145 -80 147 -107 219 -164 219 -173 0 -24 -27
-17 -94 24 -49 31 -85 46 -107 46 -33 0 -81 10 -125 24 -18 5 -23 0 -34 -34
-20 -60 -27 -63 -115 -51 -109 16 -154 14 -162 -5 -6 -16 42 -74 62 -74 7 0
20 -10 31 -21 10 -12 42 -36 70 -54 55 -35 73 -70 54 -105 -6 -11 -20 -20 -31
-20 -11 0 -47 -15 -80 -32 l-59 -33 0 -69 c0 -57 6 -82 31 -137 26 -57 36 -68
61 -73 59 -12 78 -6 151 50 70 54 76 62 142 188 l69 132 91 18 c142 29 156 30
166 15 5 -9 46 -17 121 -24 l113 -10 1 -50 c1 -27 6 -68 12 -90 5 -22 10 -47
9 -55 0 -8 10 -39 23 -67 17 -40 39 -66 92 -110 77 -63 168 -160 168 -180 0
-8 -18 -1 -47 17 -26 17 -51 30 -55 30 -4 0 -38 14 -75 31 -187 85 -167 80
-304 84 -119 4 -136 2 -226 -25 -170 -50 -223 -82 -366 -219 -32 -31 -64 -59
-71 -63 -17 -9 -77 -116 -110 -196 -13 -32 -34 -117 -46 -190 -22 -130 -22
-133 -5 -225 34 -175 47 -207 139 -339 89 -128 203 -256 246 -279 38 -19 194
-40 301 -41 100 0 154 11 229 44 105 47 133 64 168 107 20 26 42 52 49 59 6 6
46 53 89 102 46 54 87 93 102 97 14 3 82 1 151 -6 119 -12 188 -23 326 -56 34
-8 141 -17 250 -20 176 -5 226 -10 360 -35 53 -10 105 -16 272 -30 105 -8 157
-2 223 26 19 9 50 22 68 30 18 8 35 14 38 14 3 0 22 -38 44 -84 39 -85 109
-197 185 -293 27 -35 68 -69 125 -104 174 -105 204 -116 345 -123 33 -2 84 -7
113 -11 53 -8 53 -8 65 24 6 17 14 31 18 31 3 0 18 -28 33 -62 44 -101 47
-106 86 -132 69 -45 172 -61 400 -60 l205 1 87 41 c63 30 91 49 101 69 32 64
57 175 67 304 l11 136 -36 62 c-38 65 -65 75 -40 14 8 -19 15 -37 15 -38 0 -2
-16 -13 -36 -26 -33 -20 -34 -23 -18 -32 11 -5 20 -11 22 -12 10 -8 -204 -205
-224 -205 -3 0 -4 16 -2 35 2 19 -1 36 -7 38 -10 4 -5 18 30 89 17 34 9 39
-55 43 -48 2 -86 22 -124 64 -11 12 -23 21 -28 21 -15 0 -8 -45 13 -79 11 -18
18 -39 15 -46 -2 -7 3 -36 11 -64 l17 -50 -63 -65 -62 -65 -10 26 c-7 19 -6
39 3 70 13 45 21 52 35 31 5 -8 10 4 15 32 10 70 9 100 -4 100 -9 0 -12 -15
-10 -49 3 -39 0 -50 -14 -55 -21 -8 -34 9 -34 44 -1 45 -11 64 -53 98 -31 26
-48 32 -68 28 -24 -5 -28 -1 -39 39 -7 25 -17 45 -23 45 -6 0 -23 -15 -38 -33
-25 -29 -29 -31 -44 -16 -14 14 -8 28 69 165 61 108 88 168 100 219 35 156 41
176 51 176 6 0 11 -21 13 -46 3 -46 10 -53 29 -34 8 8 9 -16 6 -83 l-5 -93
-66 -60 -66 -60 50 -6 c76 -10 94 -3 87 33 l-6 30 104 -6 c57 -3 120 -7 139
-8 l35 -3 13 75 c16 92 10 186 -17 271 -48 147 -55 166 -80 199 -14 19 -54 74
-87 123 -34 49 -113 142 -177 206 l-115 118 -113 27 c-165 39 -380 108 -386
123 -3 7 0 20 7 28 9 11 45 15 162 17 l151 3 90 98 91 98 -13 77 c-7 42 -16
91 -18 107 -9 55 -34 119 -90 227 -55 105 -150 232 -175 233 -7 1 -46 5 -85 9
-68 8 -74 11 -94 42 -11 19 -29 40 -38 47 -12 8 -20 32 -24 70 -4 31 -10 83
-14 115 -6 56 -8 59 -111 170 -57 61 -107 112 -111 112 -3 -1 -24 -39 -45 -85z
m-2094 -909 c108 -28 202 -80 231 -128 11 -18 42 -78 70 -133 l50 -100 -6
-130 c-6 -127 -7 -132 -47 -210 -22 -44 -45 -85 -50 -92 -17 -20 -12 -27 34
-46 25 -10 46 -26 49 -37 5 -20 -13 -29 -118 -62 -59 -19 -50 -38 28 -61 84
-25 88 -42 8 -34 -40 4 -87 20 -142 47 -45 22 -84 42 -85 43 -2 2 26 18 61 37
36 19 65 37 65 41 0 4 -22 27 -50 52 -41 37 -55 59 -80 127 -17 45 -28 85 -25
90 2 4 15 8 27 8 24 0 138 29 145 36 6 5 -95 216 -103 216 -3 0 -2 -9 1 -20
12 -37 -28 -23 -113 40 -80 58 -93 75 -72 96 6 6 6 22 0 44 -5 18 -8 36 -6 38
3 2 10 -15 17 -37 13 -43 63 -91 95 -91 14 0 11 7 -15 34 -41 42 -36 71 13 80
41 8 60 1 108 -37 58 -46 56 -25 -1 23 -28 24 -48 46 -46 50 3 4 -25 26 -61
49 -36 23 -62 37 -59 31 9 -15 -2 -12 -30 6 -29 19 -32 41 -7 47 9 3 18 5 19
6 2 0 44 -10 95 -23z m220 -30 c131 -61 138 -63 176 -31 22 19 38 24 53 20 18
-6 20 -12 15 -53 -3 -26 -8 -81 -11 -122 -7 -79 -30 -128 -56 -118 -8 3 -27
46 -43 95 l-29 89 -108 75 c-99 68 -123 89 -100 89 4 0 51 -20 103 -44z m1919
-163 c55 -25 99 -49 99 -52 0 -3 -32 -4 -70 -3 -39 2 -83 0 -98 -5 -15 -4 -42
-7 -60 -5 -32 3 -33 4 -17 22 19 21 18 23 -57 44 -32 9 -58 19 -58 22 0 11 49
23 104 23 49 1 73 -6 157 -46z m-1104 -224 c43 -11 139 -40 214 -64 74 -24
152 -47 172 -50 46 -9 56 -23 30 -45 l-21 -16 21 -10 c25 -11 32 -68 7 -60
-111 38 -167 59 -175 67 -5 5 -17 9 -28 9 -10 0 -47 10 -83 23 -52 18 -64 26
-62 41 3 21 -11 27 -127 50 -60 13 -74 27 -61 62 7 19 21 18 113 -7z m-1315
-43 c13 -17 19 -19 29 -8 19 18 29 15 38 -10 12 -32 2 -42 -20 -22 -28 26 -34
10 -9 -25 l21 -31 -48 21 c-69 29 -108 58 -120 89 l-10 27 51 -11 c30 -5 58
-18 68 -30z m1183 24 c3 -5 1 -10 -4 -10 -6 0 -11 5 -11 10 0 6 2 10 4 10 3 0
8 -4 11 -10z m-1530 -320 c-34 -49 -35 -53 -20 -70 9 -10 14 -24 10 -29 -3 -6
-1 -11 4 -11 6 0 11 -4 11 -8 0 -14 -113 -30 -137 -19 -13 6 -23 13 -23 16 0
4 39 48 87 99 94 101 132 114 68 22z m485 55 c0 -3 -21 -15 -47 -26 -159 -70
-203 -88 -203 -84 0 2 46 29 103 59 89 48 147 68 147 51z m-190 -20 c0 -8 -7
-15 -16 -15 -14 0 -14 3 -4 15 7 8 14 15 16 15 2 0 4 -7 4 -15z m1245 -55 c3
-6 -1 -7 -9 -4 -18 7 -21 14 -7 14 6 0 13 -4 16 -10z m1897 -160 c21 -6 41
-17 45 -24 5 -7 36 -29 69 -49 49 -29 63 -43 68 -68 10 -53 7 -79 -9 -79 -9 0
-67 44 -130 97 -139 117 -152 153 -43 123z m-2472 -139 c24 -7 23 -8 -15 -19
-22 -7 -60 -12 -85 -12 l-46 0 -39 -81 c-50 -101 -68 -113 -84 -59 -11 37 -10
44 14 84 33 56 44 65 102 81 53 15 115 17 153 6z m-978 -247 c72 -36 317 -100
344 -90 29 11 12 -18 -48 -80 -33 -35 -68 -64 -76 -64 -9 0 -24 -8 -34 -17
-18 -16 -22 -16 -66 -1 -26 9 -72 20 -102 24 -58 8 -120 46 -120 75 0 8 -4 19
-9 25 -5 5 -12 20 -16 33 -6 20 -4 23 9 18 13 -5 16 -3 11 12 -3 10 1 24 10
31 9 7 15 30 16 54 0 22 3 35 6 28 3 -7 37 -29 75 -48z m2778 23 c0 -12 -6
-47 -14 -77 -17 -63 -12 -70 40 -79 37 -6 38 -7 60 -87 12 -44 27 -90 35 -101
11 -18 11 -24 -1 -38 -7 -8 -16 -14 -20 -13 -4 2 -37 36 -74 76 l-66 72 0 128
c0 71 3 132 7 135 14 15 33 6 33 -16z m690 -189 c10 -24 17 -44 15 -46 -6 -6
-64 62 -65 76 0 28 32 9 50 -30z m50 -101 c0 -13 -63 -4 -68 11 -2 6 7 16 20
21 17 7 26 5 36 -7 6 -9 12 -20 12 -25z m-93 -639 c14 -15 28 -17 103 -11 48
3 90 2 93 -3 3 -5 -37 -10 -88 -11 l-93 -3 -30 34 c-16 19 -37 55 -47 80 -10
25 -21 43 -26 41 -4 -3 -11 -26 -15 -50 -3 -25 -10 -48 -15 -50 -12 -8 2 66
19 100 l15 29 34 -69 c20 -39 42 -78 50 -87z"/>
<path d="M1370 3156 c0 -3 9 -10 20 -16 11 -6 20 -8 20 -6 0 3 -9 10 -20 16
-11 6 -20 8 -20 6z"/>
</g>
</svg>
